<?xml version="1.0" encoding="UTF-8" standalone="no"?>
<svg width="200" height="200" viewBox="0 0 200 200" fill="none" xmlns="http://www.w3.org/2000/svg">
  <rect width="200" height="200" fill="#4361EE"/>
  <path d="M57.5 150V50H87.5C97.5 50 105 52.5 110 57.5C115 62.5 117.5 69.5 117.5 77.5C117.5 83.5 116 88.5 113 92.5C110 96.5 106 99 101 100C107 101 112 103.5 116 108C120 112.5 122 118.5 122 126C122 135 119.5 142.5 114.5 148C109.5 153.5 101.5 156 90.5 156H57.5V150ZM77.5 95H87.5C91.5 95 94.5 94 96.5 92C98.5 90 99.5 87 99.5 83C99.5 79 98.5 76 96.5 74C94.5 72 91.5 71 87.5 71H77.5V95ZM77.5 135H90.5C95.5 135 99 133.5 101.5 131C104 128.5 105 125 105 120.5C105 116 103.5 112.5 101 110C98.5 107.5 95 106 90.5 106H77.5V135Z" fill="white"/>
  <path d="M142.5 150V50H172.5C182.5 50 190 52.5 195 57.5C200 62.5 202.5 69.5 202.5 77.5C202.5 83.5 201 88.5 198 92.5C195 96.5 191 99 186 100C192 101 197 103.5 201 108C205 112.5 207 118.5 207 126C207 135 204.5 142.5 199.5 148C194.5 153.5 186.5 156 175.5 156H142.5V150ZM162.5 95H172.5C176.5 95 179.5 94 181.5 92C183.5 90 184.5 87 184.5 83C184.5 79 183.5 76 181.5 74C179.5 72 176.5 71 172.5 71H162.5V95ZM162.5 135H175.5C180.5 135 184 133.5 186.5 131C189 128.5 190 125 190 120.5C190 116 188.5 112.5 186 110C183.5 107.5 180 106 175.5 106H162.5V135Z" fill="white"/>
</svg>
