<svg width="500" height="400" viewBox="0 0 500 400" fill="none" xmlns="http://www.w3.org/2000/svg">
    <defs>
        <linearGradient id="hero-gradient" x1="0%" y1="0%" x2="100%" y2="100%">
            <stop offset="0%" stop-color="#0ea5e9" />
            <stop offset="100%" stop-color="#6366f1" />
        </linearGradient>
    </defs>
    <rect x="100" y="50" width="300" height="200" rx="10" fill="url(#hero-gradient)" opacity="0.1" />
    <rect x="130" y="80" width="240" height="20" rx="5" fill="white" opacity="0.6" />
    <rect x="130" y="110" width="180" height="10" rx="5" fill="white" opacity="0.4" />
    <rect x="130" y="130" width="200" height="10" rx="5" fill="white" opacity="0.4" />
    <rect x="130" y="150" width="160" height="10" rx="5" fill="white" opacity="0.4" />
    <rect x="130" y="180" width="100" height="30" rx="5" fill="url(#hero-gradient)" />
    <rect x="240" y="180" width="100" height="30" rx="5" stroke="white" stroke-width="2" fill="transparent" />
    <circle cx="380" cy="100" r="30" fill="url(#hero-gradient)" opacity="0.8" />
    <rect x="150" y="250" width="200" height="100" rx="10" fill="url(#hero-gradient)" opacity="0.2" />
    <rect x="170" y="270" width="160" height="10" rx="5" fill="white" opacity="0.5" />
    <rect x="170" y="290" width="120" height="10" rx="5" fill="white" opacity="0.5" />
    <rect x="170" y="310" width="140" height="10" rx="5" fill="white" opacity="0.5" />
    <rect x="170" y="330" width="100" height="10" rx="5" fill="white" opacity="0.5" />
</svg>
